# xmcd
#
# Track frame offsets:
# 150
# 22167
# 37332
# 61407
# 81420
# 103959
# 118564
# 136073
# 160401
# 178694
# 194093
#
# Disc length: 2875 seconds
#
#
# Revision: 0
# Processed by: cddbd v1.5.1PL0 Copyright (c) Steve Scherf et al.
# Submitted via: FreeRIP 2.931 
#
DISCID=a60b390b
DTITLE=Reinaldo Anastácio - Grafite
DYEAR=1900
DGENRE=Blues
TTITLE0=Amor na Cidade
TTITLE1=Pocas Palavras
TTITLE2=Cumplicidade
TTITLE3=Grafite
TTITLE4=Um Filme
TTITLE5=Meia Luz
TTITLE6=Os Sonhos
TTITLE7=Avatar
TTITLE8=Lembranças
TTITLE9=Primavera Sem Cor
TTITLE10=Nosso Caso
EXTD=
EXTT0=
EXTT1=
EXTT2=
EXTT3=
EXTT4=
EXTT5=
EXTT6=
EXTT7=
EXTT8=
EXTT9=
EXTT10=
PLAYORDER=
